<?xml version="1.0" standalone="no"?>
<!DOCTYPE svg PUBLIC "-//W3C//DTD SVG 20010904//EN"
 "http://www.w3.org/TR/2001/REC-SVG-20010904/DTD/svg10.dtd">
<svg version="1.0" xmlns="http://www.w3.org/2000/svg"
 width="1080.000000pt" height="1069.000000pt" viewBox="0 0 1080.000000 1069.000000"
 preserveAspectRatio="xMidYMid meet">

<g transform="translate(0.000000,1069.000000) scale(0.100000,-0.100000)"
fill="#000000" stroke="none">
<path d="M0 5345 l0 -5345 5400 0 5400 0 0 5345 0 5345 -5400 0 -5400 0 0
-5345z m5796 5135 c72 -5 180 -17 240 -26 60 -9 136 -19 169 -24 125 -18 312
-57 440 -92 39 -11 104 -28 145 -39 93 -25 386 -122 443 -148 23 -10 78 -33
122 -51 76 -30 435 -205 520 -253 106 -60 235 -140 246 -153 6 -8 15 -14 20
-14 7 0 22 -9 102 -63 11 -6 42 -29 70 -49 28 -21 54 -38 57 -38 4 0 18 -10
31 -21 13 -12 49 -40 79 -62 30 -22 57 -43 60 -46 3 -4 21 -18 42 -33 20 -15
42 -33 50 -40 7 -7 47 -42 88 -78 182 -157 416 -394 538 -545 31 -38 65 -79
76 -90 35 -38 192 -250 241 -325 27 -41 52 -77 55 -80 10 -9 50 -69 50 -75 0
-3 14 -24 30 -47 17 -22 30 -45 30 -49 0 -4 13 -27 29 -51 73 -110 234 -430
316 -628 15 -36 33 -78 40 -95 18 -41 71 -193 102 -290 22 -73 36 -120 92
-325 118 -427 178 -1099 141 -1590 -23 -299 -90 -716 -145 -899 -14 -47 -25
-92 -25 -101 0 -16 -102 -337 -120 -375 -5 -11 -12 -31 -16 -45 -3 -14 -17
-49 -30 -78 -13 -29 -24 -55 -24 -57 0 -2 -11 -29 -25 -59 -14 -30 -25 -57
-25 -61 0 -5 -118 -255 -139 -295 -47 -89 -101 -186 -133 -238 -21 -34 -38
-65 -38 -68 0 -2 -8 -17 -19 -32 -10 -15 -56 -83 -101 -152 -70 -106 -251
-354 -270 -370 -3 -3 -21 -25 -40 -50 -19 -25 -37 -47 -41 -50 -3 -3 -33 -36
-66 -75 -146 -171 -423 -435 -632 -603 -114 -92 -133 -107 -150 -116 -9 -5
-20 -14 -26 -19 -10 -8 -166 -118 -195 -137 -303 -197 -537 -324 -790 -429
-58 -25 -123 -52 -145 -61 -86 -37 -207 -80 -224 -80 -9 0 -21 -4 -26 -9 -11
-10 -167 -59 -300 -94 -289 -77 -430 -104 -770 -147 -236 -30 -607 -37 -900
-18 -480 31 -1015 148 -1450 315 -49 19 -98 39 -107 44 -10 5 -22 9 -27 9 -23
0 -384 174 -525 253 -65 37 -120 67 -123 67 -2 0 -16 9 -31 19 -15 11 -76 51
-137 89 -208 134 -419 292 -600 451 -222 195 -499 488 -653 689 -19 25 -39 51
-43 56 -74 93 -268 376 -315 461 -6 11 -43 76 -83 145 -39 69 -89 161 -110
205 -83 172 -121 256 -121 268 0 7 -4 17 -9 23 -5 5 -30 63 -56 129 -126 320
-232 710 -284 1040 -50 322 -56 402 -55 810 0 412 9 538 64 862 52 305 169
724 269 968 5 11 16 38 24 60 66 167 191 429 292 610 36 65 157 259 165 265 4
3 9 12 12 20 13 33 290 409 318 430 3 3 19 23 35 45 17 22 32 42 35 45 3 3 36
39 74 80 133 144 280 292 375 377 53 47 113 101 133 119 20 19 40 34 43 34 3
0 13 8 23 18 10 9 33 29 52 44 19 14 64 49 100 77 176 136 593 397 738 461 28
13 52 27 52 32 0 4 4 8 10 8 5 0 53 21 106 46 195 92 537 226 640 250 16 3 63
17 104 30 203 64 458 116 805 164 259 36 699 45 1011 20z"/>
<path d="M5110 9754 c-174 -11 -358 -32 -460 -54 -25 -5 -94 -19 -155 -30
-137 -26 -281 -64 -440 -116 -157 -51 -443 -161 -455 -175 -3 -3 -23 -13 -46
-21 -49 -20 -229 -112 -302 -156 -29 -18 -55 -32 -57 -32 -5 0 -76 -44 -175
-109 -30 -19 -56 -39 -58 -43 -2 -5 -8 -8 -13 -8 -8 0 -163 -110 -213 -152 -6
-4 -36 -27 -66 -50 -30 -24 -60 -47 -66 -53 -6 -5 -37 -32 -70 -60 -87 -74
-330 -318 -415 -416 -133 -153 -265 -320 -277 -349 -7 -16 -8 -18 -49 -70 -16
-19 -39 -55 -53 -80 -13 -25 -28 -49 -32 -55 -11 -13 -88 -135 -88 -139 0 -1
-28 -54 -63 -117 -64 -117 -198 -406 -243 -527 -136 -367 -225 -762 -258
-1159 -18 -208 -21 -559 -6 -701 25 -230 33 -293 51 -402 31 -191 77 -383 134
-560 42 -133 124 -357 160 -435 56 -125 169 -350 177 -353 4 -2 8 -8 8 -13 0
-10 160 -281 171 -289 3 -3 12 -16 19 -30 26 -48 205 -285 335 -441 16 -19
117 -122 224 -229 183 -182 303 -287 461 -403 36 -26 74 -55 84 -64 10 -8 51
-36 90 -60 39 -25 100 -65 136 -88 36 -23 83 -52 105 -65 22 -12 56 -32 75
-43 19 -11 94 -49 165 -84 72 -36 138 -69 147 -73 114 -61 509 -199 710 -250
260 -65 408 -91 693 -122 159 -17 624 -17 795 0 793 79 1553 368 2170 826 83
61 185 141 200 156 3 3 39 34 80 70 91 78 200 181 290 275 101 104 198 217
285 330 33 43 65 83 70 89 6 6 22 27 35 46 13 19 27 37 30 40 3 3 10 13 15 22
6 9 44 69 85 133 41 63 84 132 95 153 46 83 60 107 66 112 4 3 38 70 77 150
161 336 248 574 327 895 38 153 53 233 90 470 3 17 12 107 20 200 30 341 14
746 -41 1065 -9 47 -20 112 -25 145 -25 152 -116 482 -174 632 -114 295 -207
496 -316 681 -27 45 -49 85 -49 88 0 3 -9 17 -19 32 -10 15 -55 82 -100 149
-72 110 -93 139 -126 177 -5 6 -26 34 -44 61 -19 28 -38 52 -41 55 -3 3 -42
48 -86 100 -43 52 -151 167 -239 255 -181 180 -194 192 -320 293 -149 120
-157 126 -180 142 -409 277 -528 344 -890 505 -120 54 -400 149 -566 194 -136
36 -421 90 -584 110 -143 18 -521 41 -600 38 -16 -1 -113 -7 -215 -13z m-280
-1894 c293 -10 590 -30 738 -49 65 -9 112 -32 112 -55 0 -7 7 -78 15 -157 14
-137 28 -243 60 -479 7 -58 19 -143 25 -190 6 -47 15 -110 20 -140 6 -30 17
-122 26 -205 8 -82 17 -157 20 -166 4 -14 24 -163 54 -394 5 -38 23 -169 40
-290 17 -121 39 -287 50 -370 11 -82 34 -247 50 -365 17 -118 35 -246 40 -285
5 -38 20 -151 34 -250 15 -99 31 -216 37 -260 6 -44 17 -123 25 -175 8 -52 23
-167 35 -255 12 -88 25 -187 30 -220 4 -33 13 -91 18 -130 5 -38 15 -105 21
-149 6 -43 8 -82 3 -87 -11 -11 -2424 -12 -2435 -1 -4 4 -4 64 2 133 6 68 22
284 36 479 13 195 29 407 34 470 6 63 17 212 25 330 36 536 44 642 75 1015 6
66 17 224 25 350 14 214 28 391 40 510 3 28 12 151 20 275 13 199 28 412 65
905 5 77 13 157 16 178 l6 37 161 0 c89 0 304 -5 477 -10z m-1983 -1807 c131
-31 123 -21 142 -183 6 -52 21 -167 32 -255 11 -88 25 -198 30 -245 5 -47 23
-191 40 -320 16 -129 39 -309 50 -400 10 -91 26 -214 34 -275 19 -140 24 -178
91 -724 37 -305 52 -457 45 -464 -12 -12 -951 -11 -964 2 -8 8 5 137 43 431
30 232 42 322 50 380 5 36 14 108 21 160 6 52 15 124 19 160 11 83 47 371 60
475 5 44 14 112 20 150 6 39 22 160 35 270 45 374 105 840 110 853 6 17 15 16
142 -15z m4710 -510 c22 -50 152 -320 228 -478 24 -49 57 -119 73 -155 40 -87
109 -233 197 -415 39 -82 80 -168 90 -190 10 -22 60 -127 112 -234 51 -106 93
-195 93 -198 0 -5 30 -69 155 -328 29 -60 76 -159 104 -218 29 -60 51 -117 49
-128 -3 -19 -21 -19 -945 -20 -518 0 -947 2 -953 6 -14 9 -13 54 10 270 26
245 39 375 50 505 23 274 41 462 50 540 6 47 22 216 35 375 51 598 49 581 76
595 17 10 86 26 274 65 39 8 104 23 145 34 119 32 131 30 157 -26z"/>
</g>
</svg>
